<svg width="28" height="28" viewBox="0 0 28 28" fill="none" xmlns="http://www.w3.org/2000/svg">
<g id="Group 2">
<circle id="Ellipse 4" cx="14" cy="14" r="14" fill="#1AA088"/>
<g id="LinkedIn">
<path id="Vector" d="M10.8388 12.1914H8.42964V19.874H10.8388V12.1914Z" fill="#161616"/>
<path id="Vector_2" d="M17.3557 12.0248C17.2668 12.0137 17.1725 12.0082 17.0781 12.0026C15.7292 11.9471 14.9687 12.7465 14.7023 13.0906C14.6301 13.185 14.5968 13.2405 14.5968 13.2405V12.2136H12.2931V19.8961H14.5968H14.7023C14.7023 19.1135 14.7023 18.3363 14.7023 17.5536C14.7023 17.1317 14.7023 16.7099 14.7023 16.288C14.7023 15.7662 14.6634 15.2111 14.9243 14.7337C15.1464 14.334 15.546 14.1342 15.9957 14.1342C17.3279 14.1342 17.3557 15.3388 17.3557 15.4498C17.3557 15.4553 17.3557 15.4609 17.3557 15.4609V19.9295H19.7648V14.9169C19.7648 13.2016 18.8933 12.1914 17.3557 12.0248Z" fill="#161616"/>
<path id="Vector_3" d="M9.63414 11.1977C10.4067 11.1977 11.033 10.5714 11.033 9.79888C11.033 9.02631 10.4067 8.40002 9.63414 8.40002C8.86158 8.40002 8.23529 9.02631 8.23529 9.79888C8.23529 10.5714 8.86158 11.1977 9.63414 11.1977Z" fill="#161616"/>
</g>
</g>
</svg>
