<svg width="28" height="28" viewBox="0 0 28 28" fill="none" xmlns="http://www.w3.org/2000/svg">
<g id="Group 4">
<circle id="Ellipse 2" cx="14" cy="14" r="14" fill="#1AA088"/>
<g id="Instagram">
<path id="Vector" d="M17.2894 19.1059H10.7106C9.80152 19.1059 9.05882 18.3632 9.05882 17.4541V10.8753C9.05882 9.96621 9.80152 9.22351 10.7106 9.22351H17.2894C18.1985 9.22351 18.9412 9.96621 18.9412 10.8753V17.4541C18.9412 18.3672 18.2025 19.1059 17.2894 19.1059Z" fill="#161616"/>
<path id="Vector_2" d="M14.002 16.7032C13.3243 16.7032 12.6871 16.4394 12.2082 15.9605C11.7293 15.4816 11.4655 14.8444 11.4655 14.1667C11.4655 13.4889 11.7293 12.8517 12.2082 12.3728C12.6871 11.8939 13.3243 11.6301 14.002 11.6301C14.6798 11.6301 15.317 11.8939 15.7959 12.3728C16.2748 12.8517 16.5386 13.4889 16.5386 14.1667C16.5386 14.8444 16.2748 15.4816 15.7959 15.9605C15.3129 16.4394 14.6798 16.7032 14.002 16.7032ZM14.002 12.1699C12.9022 12.1699 12.0053 13.0628 12.0053 14.1667C12.0053 15.2665 12.8981 16.1634 14.002 16.1634C15.1019 16.1634 15.9988 15.2706 15.9988 14.1667C15.9947 13.0668 15.1019 12.1699 14.002 12.1699Z" fill="#1AA088"/>
<path id="Vector_3" d="M17.033 11.5468C17.302 11.5468 17.52 11.3288 17.52 11.0598C17.52 10.7908 17.302 10.5728 17.033 10.5728C16.764 10.5728 16.546 10.7908 16.546 11.0598C16.546 11.3288 16.764 11.5468 17.033 11.5468Z" fill="#1AA088"/>
</g>
</g>
</svg>
