<svg width="28" height="28" viewBox="0 0 28 28" fill="none" xmlns="http://www.w3.org/2000/svg">
<g id="Group 3">
<circle id="Ellipse 9" cx="14" cy="14" r="14" fill="#1AA088"/>
<g id="Whatsapp">
<path id="Vector" d="M19.3725 11.7171C19.0796 11.0697 18.659 10.4885 18.1251 9.98768C17.5911 9.49154 16.9721 9.09935 16.2823 8.82529C15.5688 8.54178 14.8127 8.40002 14.0331 8.40002C13.2534 8.40002 12.4974 8.54178 11.7839 8.82529C11.094 9.09935 10.475 9.48681 9.94108 9.98768C9.40714 10.4885 8.9866 11.0697 8.69364 11.7171C8.39123 12.3881 8.23529 13.1063 8.23529 13.8434C8.23529 15.1334 8.71725 16.3714 9.60086 17.3542L9.12834 19.9294L11.6421 18.8096C12.3934 19.1309 13.192 19.2915 14.0284 19.2915C14.808 19.2915 15.564 19.1498 16.2775 18.8663C16.9674 18.5922 17.5864 18.2047 18.1204 17.7039C18.6543 17.203 19.0748 16.6218 19.3678 15.9745C19.6702 15.3035 19.8261 14.5853 19.8261 13.8481C19.8309 13.1063 19.6749 12.3928 19.3725 11.7171Z" fill="#161616"/>
<path id="Vector_2" d="M16.3863 14.9303C16.1406 14.8074 15.961 14.7318 15.8334 14.6845C15.7531 14.6562 15.5641 14.5711 15.4979 14.6231C15.29 14.7932 15.0679 15.2752 14.8317 15.365C14.2458 15.2516 13.7024 14.8499 13.2771 14.4388C13.0881 14.2593 12.7384 13.749 12.6628 13.6119C12.6487 13.4702 12.9038 13.2812 12.9605 13.1725C13.2535 12.8417 13.0314 12.6338 12.9936 12.4968C12.9275 12.355 12.8141 12.0999 12.7148 11.892C12.6298 11.7549 12.6109 11.5518 12.4596 11.4762C11.817 11.1454 11.4485 11.8069 11.2973 12.1519C10.3853 14.3491 15.8665 18.5308 16.9816 15.6485C17.0383 15.398 17.0147 15.3035 16.9297 15.1901C16.7596 15.072 16.5611 15.02 16.3863 14.9303Z" fill="#1AA088"/>
</g>
</g>
</svg>
